<svg height="286.038777" viewBox="0 0 14.653998 11.777633" width="349.602949" xmlns="http://www.w3.org/2000/svg"><g fill-rule="evenodd" transform="translate(-73.972876 -175.450469)"><path d="m77.79699 175.58276c.07161.0123.143228.0247.214489.0374.288925.0515.559858.14958.799042.32315.249413.18027.420863.41487.477308.72178.04904.26459.02046.51788-.134408.74577-.12312.18133-.297745.28152-.512234.31645-.159103.0257-.311503.008-.455436-.0653-.38735-.19755-.382058-.66957-.156986-.91158.07232-.0769.162631-.12629.264583-.15451.02117-.006.04198-.012.06632-.0194-.02399-.0515-.06421-.0825-.104423-.11218-.106891-.0776-.2286-.12171-.357364-.14499-.238125-.0427-.469547-.0183-.688622.0857-.23495.11042-.395464.29387-.482247.53729-.102658.28716-.101247.57785.000353.8643.10795.30374.326319.50165.621947.61913.153811.061.314325.0931.478719.10795.170745.0166.340431.0123.509764-.0113.01164-.001.02399-.001.04621-.002-.07761.27269-.154164.53939-.23248.80574-.113948.0233-.225778.0427-.335492.0684-.439561.10266-.856897.26-1.231547.51753-.264584.18168-.487892.40322-.636411.69038-.167217.32456-.214136.6664-.125589 1.02129.08678.34678.313266.56974.646289.68616.251177.0878.511527.10265.7747.0755.271991-.0279.533047-.10019.785989-.20285.0127-.005.02646-.01.04198-.0159.03986.28293.147108.53869.29457.77999-.113242.0804-.234245.14252-.357717.19791-.348192.15557-.710495.26247-1.089378.31115-.476955.0614-.947208.0324-1.408994-.10337-.267053-.078-.512586-.19967-.729545-.37606-.307975-.24976-.51188-.56656-.609952-.95003-.02328-.0924-.03493-.18732-.05256-.28081-.0028-.0159-.0081-.031-.0127-.0466v-.30445c.0053-.0233.01129-.0469.01517-.0706.02223-.11924.03634-.24059.06738-.35771.141111-.53164.451908-.95039.874183-1.29223.337255-.27305.71755-.4706 1.127478-.60925.164747-.0561.334433-.0967.502002-.14464.02046-.006.04057-.0152.06068-.0222-.01517-.012-.02716-.0145-.03916-.0159-.222956-.031-.434622-.0956-.631472-.20672-.251178-.14253-.450498-.33514-.584553-.59373-.144992-.2794-.16757-.5775-.118181-.8823.0755-.46355.312209-.83326.683331-1.1176.367594-.28151.788811-.42298 1.2446-.47448.05397-.006.107597-.0159.161219-.024z"/><path d="m75.603991 187.09581c-.01199-.0127-.02293-.0272-.03669-.0381-.4445-.34996-.889705-.69956-1.334911-1.04916-.02999-.0236-.06033-.0469-.09737-.0755.08784-.0406.170745-.0794.254353-.11641.757061-.33373 1.535289-.61137 2.323395-.86254.757061-.2413 1.521177-.45826 2.292349-.64947.576087-.14287 1.153937-.2801 1.73355-.40887.547864-.12135 1.098198-.23177 1.649237-.33972.433563-.0847.869244-.1591 1.304572-.23495.363361-.0628.727075-.12242 1.091847-.17957.312208-.0494.625122-.0938.938389-.13899.280458-.0409.561622-.0801.842786-.11818.237419-.0318.474839-.06.711905-.0893.221545-.0275.442384-.0547.664281-.0808.154517-.018.310444-.0342.465314-.0508.01799-.002.03634-.00035.06279-.00035-.0194.18062-.04692.35983-.07338.53869-.116769.0176-.228952.0335-.34043.0526-.294217.0494-.588786.0952-.880886.15205-.413808.0804-.826558.1651-1.23825.25612-.66287.14605-1.322211.30832-1.979083.48013-.960614.25118-1.916289.5214-2.863145.81985-.587375.18556-1.171928.37818-1.754364.57821-.761294.25999-1.513416.5461-2.254602.85901-.480131.20285-.954264.4191-1.417109.65899-.0187.01-.03493.0247-.05221.037z"/><path d="m83.241268 178.13451c-.117475.33373-.09066.65652.0067.97543-.206728.24977-.315736.54081-.393347.84561-.05927.23283-.0889.4706-.08537.71049.0028.1838.03175.36372.105834.53376.03634.084.08431.16086.146755.2293.133703.14499.300567.20708.496006.20179.267405-.008.47625-.13229.646994-.32808.204964-.23495.321028-.51435.395464-.8121.07408-.29739.08431-.59796.04657-.90064-.0046-.0377-.0053-.0836-.02752-.10971-.0187-.0222-.06456-.0236-.09984-.0303-.190853-.0367-.371475-.10054-.529519-.21696-.23742-.17463-.357364-.40958-.352425-.7045.0021-.13017.03598-.25329.115005-.35983.101247-.13723.242358-.20532.409575-.22225.252236-.0247.465667.0635.648053.23354.160514.14993.265994.33584.343958.53904.01199.0296.02223.0607.03387.0907.0014.004.0053.006.01411.0155.08608-.0134.178858-.0251.269522-.043.394053-.078.749653-.2473 1.076325-.47554.200731-.14041.393347-.29246.589139-.44133.137231-.10372.27305-.21061.425803-.29069.06068-.0314.124883-.0561.192616-.0857.106187.19085.208845.37429.310092.55739-.05574.0395-.112536.0741-.16263.11676-.136525.11607-.212725.26494-.21837.44521-.0028.0963.02611.18803.0628.27658.05715.13511.133702.25929.211313.38311.127353.20462.257528.40746.362303.62548.108656.22472.180975.46073.206375.70873.02364.2353-.0127.46531-.08855.68862-.135467.39652-.399697.68545-.759178.89147-.258586.14852-.537986.23601-.833614.26635-.285397.03-.567266.0113-.841022-.0822-.1143-.0395-.218722-.096-.312208-.17286-.21837-.17709-.300214-.51047-.188383-.76764.09913-.22825.351366-.35349.591608-.29493.234244.0575.380294.28822.335139.53235-.0099.0533-.02611.10512-.04163.1651.03457.008.06914.0194.103717.0236.205669.0286.396169-.0102.566208-.13194.179564-.12841.277989-.30691.317147-.52176.03951-.21166.0063-.41451-.07726-.61171-.09102-.2152-.207434-.41699-.318911-.6216-.09913-.18379-.198967-.36724-.264231-.56656-.03281-.0988-.05644-.19932-.05503-.30374.000353-.0318.0053-.0639.0099-.10654-.412398.2734-.8636.40887-1.3462.4639.0071.0624.01588.12207.0194.18239.0071.12347.01623.2473.01482.37112-.0021.2025-.02364.40393-.06632.6029-.1016.47696-.299861.9077-.623358 1.27494-.298098.33831-.658989.58173-1.103489.68368-.451203.10266-.87877.0448-1.268942-.2159-.180975-.12065-.322792-.27693-.416983-.47413-.0049-.0102-.01129-.0205-.02046-.0363-.04445.0572-.08361.11007-.125942.16087-.35172.4191-.775758.73378-1.301044.90276-.214842.0688-.434975.0988-.659695.0836-.27058-.018-.521758-.0938-.737305-.2667-.189089-.15135-.306212-.3489-.367242-.58032-.0508-.19509-.05786-.39194-.03175-.59161.05397-.41099.161572-.81068.269169-1.20932.100895-.3736.208492-.74507.312914-1.11796.0046-.0173.0092-.0342.01658-.0617-.171097.0268-.333728.0522-.504472.0797.0046-.0226.0071-.0399.01164-.0561.06103-.2226.122767-.4452.182739-.66816.01129-.0409.02787-.0621.07408-.0727.222603-.048.427567-.13652.60325-.2861.151342-.12912.260703-.28822.345723-.46496.09278-.19333.151341-.39794.206022-.60361.0049-.0197.0099-.0391.01693-.0656.323497-.10019.649817-.20179.987072-.30621-.135819.50517-.275519 1.00224-.41275 1.50918.15487-.001.302331-.0261.450498-.0377.149225-.0116.297744-.03.446969-.0445.0021.0469-.172508.69568-.212372.79093-.299509.0307-.601486.0617-.905228.0928-.01587.0568-.03104.10901-.04515.16193-.156634.58878-.313267 1.17863-.469195 1.76776-.04868.18486-.09137.37042-.110772.56092-.0088.0854-.0028.16969.02787.25118.05539.14605.164042.2226.316795.23671.155222.0145.30233-.0222.444853-.0787.226836-.0907.426861-.22366.611011-.38205.126294-.10866.239888-.23002.342194-.36266.02716-.0353.03986-.0674.03422-.11536-.02681-.2293-.0078-.45826.02611-.68474.05186-.34749.155928-.67874.313619-.99307.165806-.33196.381706-.62618.658637-.87383.168627-.15099.356305-.27446.564444-.36548.01058-.004.02187-.008.04127-.0155"/></g></svg>